<?xml version="1.0" encoding="UTF-8" standalone="no"?>
<!-- Created with Inkscape (http://www.inkscape.org/) -->

<svg
   xmlns:dc="http://purl.org/dc/elements/1.1/"
   xmlns:cc="http://creativecommons.org/ns#"
   xmlns:rdf="http://www.w3.org/1999/02/22-rdf-syntax-ns#"
   xmlns:svg="http://www.w3.org/2000/svg"
   xmlns="http://www.w3.org/2000/svg"
   xmlns:sodipodi="http://sodipodi.sourceforge.net/DTD/sodipodi-0.dtd"
   xmlns:inkscape="http://www.inkscape.org/namespaces/inkscape"
   width="36"
   height="36"
   id="svg2"
   version="1.1"
   inkscape:version="0.48.2 r9819"
   inkscape:export-filename="C:\dev\perso\pixmob\freemobilenetstat\res\drawable-hdpi-v11\ic_stat_notify_service_orange.png"
   inkscape:export-xdpi="90"
   inkscape:export-ydpi="90"
   sodipodi:docname="ic_stat_notify_service_orange_v11.svg">
  <defs
     id="defs4" />
  <sodipodi:namedview
     id="base"
     pagecolor="#000000"
     bordercolor="#666666"
     borderopacity="1.0"
     inkscape:pageopacity="0"
     inkscape:pageshadow="2"
     inkscape:zoom="7.9195959"
     inkscape:cx="7.695173"
     inkscape:cy="18.94616"
     inkscape:document-units="px"
     inkscape:current-layer="layer1"
     showgrid="false"
     fit-margin-top="0"
     fit-margin-left="0"
     fit-margin-right="0"
     fit-margin-bottom="0"
     inkscape:window-width="1389"
     inkscape:window-height="786"
     inkscape:window-x="403"
     inkscape:window-y="136"
     inkscape:window-maximized="0" />
  <metadata
     id="metadata7">
    <rdf:RDF>
      <cc:Work
         rdf:about="">
        <dc:format>image/svg+xml</dc:format>
        <dc:type
           rdf:resource="http://purl.org/dc/dcmitype/StillImage" />
        <dc:title></dc:title>
      </cc:Work>
    </rdf:RDF>
  </metadata>
  <g
     inkscape:label="Calque 1"
     inkscape:groupmode="layer"
     id="layer1"
     transform="translate(163.43655,-1112.5424)">
    <rect
       style="fill:#ffffff"
       id="rect3004"
       width="1.767767"
       height="1.6414979"
       x="-39.26968"
       y="-2.890873"
       transform="translate(0,1016.3622)" />
    <text
       xml:space="preserve"
       style="font-size:19.60832024px;font-style:normal;font-weight:normal;line-height:125%;letter-spacing:0px;word-spacing:0px;fill:#ffffff;fill-opacity:1;stroke:none;font-family:Sans"
       x="-143.60553"
       y="1143.933"
       id="text3791"
       sodipodi:linespacing="125%"><tspan
         sodipodi:role="line"
         id="tspan3793"
         x="-143.60553"
         y="1143.933"
         style="font-style:normal;font-variant:normal;font-weight:bold;font-stretch:normal;fill:#ffffff;font-family:Liberation Sans;-inkscape-font-specification:Liberation Sans Bold">?</tspan></text>
    <path
       style="fill:#ffffff;fill-opacity:1"
       d="m -157.98643,1144.6449 -0.29666,-0.3525 0.23727,-0.5564 c 0.22306,-0.523 0.62519,-1.3684 1.9078,-4.0103 0.29604,-0.6098 0.53825,-1.1527 0.53825,-1.2064 0,-0.054 0.27059,-0.663 0.60135,-1.354 0.80121,-1.6737 1.69858,-3.5706 2.06461,-4.3638 0.16366,-0.3547 0.7638,-1.6114 1.33363,-2.7926 0.56984,-1.181 1.0508,-2.2366 1.06882,-2.3452 0.0294,-0.1774 -0.17467,-0.204 -1.96079,-0.2566 -1.09646,-0.032 -2.05316,-0.097 -2.126,-0.1451 -0.0729,-0.048 -0.15842,-0.1857 -0.1902,-0.3072 -0.0677,-0.2588 0.52676,-1.5338 0.81449,-1.7469 0.14195,-0.1056 0.82341,-0.1466 2.40651,-0.1466 l 2.20858,0 0.31961,-0.5435 c 1.94928,-3.3148 3.65186,-4.9481 6.76937,-6.4933 0.90297,-0.4478 2.01115,-0.9446 2.46264,-1.1043 2.38062,-0.8418 5.15599,-1.0822 6.35342,-0.5503 0.48946,0.2175 0.64185,0.3561 0.78558,0.7154 0.30821,0.7703 -0.13198,1.7251 -1.00589,2.1816 -0.44483,0.2325 -1.50769,0.2044 -2.65181,-0.069 -2.14735,-0.5149 -3.67778,-0.1899 -4.8675,1.033 -0.44953,0.4621 -2.57905,4.5591 -2.46545,4.7432 0.0298,0.048 1.17517,0.088 2.54516,0.088 2.66654,0 2.77234,0.022 2.77234,0.5889 0,0.2278 -0.52784,1.4114 -0.74174,1.6633 -0.0111,0.016 -1.33559,0.053 -2.94293,0.088 l -2.92242,0.063 -0.25506,0.4827 c -0.14029,0.2653 -0.51152,0.9515 -0.82501,1.5244 -0.31347,0.5731 -0.88083,1.6488 -1.26076,2.3906 -0.37993,0.7416 -0.92663,1.7971 -1.21488,2.3453 -0.28824,0.5483 -0.92499,1.7883 -1.41499,2.7558 -0.49001,0.9674 -1.26979,2.4714 -1.73285,3.3422 -0.46305,0.8708 -1.12728,2.1308 -1.47605,2.8003 -0.36168,0.6943 -0.73488,1.2591 -0.86865,1.3146 -0.22373,0.093 -3.16662,0.5758 -3.50932,0.5758 -0.09,0 -0.29731,-0.1587 -0.46047,-0.3525 z"
       id="path3845"
       inkscape:connector-curvature="0" />
  </g>
</svg>
