<?xml version="1.0" encoding="UTF-8" standalone="no"?>
<!-- Created with Inkscape (http://www.inkscape.org/) -->

<svg
   xmlns:dc="http://purl.org/dc/elements/1.1/"
   xmlns:cc="http://creativecommons.org/ns#"
   xmlns:rdf="http://www.w3.org/1999/02/22-rdf-syntax-ns#"
   xmlns:svg="http://www.w3.org/2000/svg"
   xmlns="http://www.w3.org/2000/svg"
   xmlns:sodipodi="http://sodipodi.sourceforge.net/DTD/sodipodi-0.dtd"
   xmlns:inkscape="http://www.inkscape.org/namespaces/inkscape"
   width="36"
   height="36"
   id="svg2"
   version="1.1"
   inkscape:version="0.48.2 r9819"
   inkscape:export-filename="C:\dev\perso\pixmob\freemobilenetstat\res\drawable-hdpi-v11\ic_stat_notify_service_free.png"
   inkscape:export-xdpi="90"
   inkscape:export-ydpi="90"
   sodipodi:docname="ic_stat_notify_service_free_v11_bw.svg">
  <defs
     id="defs4" />
  <sodipodi:namedview
     id="base"
     pagecolor="#000000"
     bordercolor="#666666"
     borderopacity="1.0"
     inkscape:pageopacity="0"
     inkscape:pageshadow="2"
     inkscape:zoom="7.919596"
     inkscape:cx="-42.583903"
     inkscape:cy="15.7336"
     inkscape:document-units="px"
     inkscape:current-layer="layer1"
     showgrid="false"
     fit-margin-top="0"
     fit-margin-left="0"
     fit-margin-right="0"
     fit-margin-bottom="0"
     inkscape:window-width="1389"
     inkscape:window-height="786"
     inkscape:window-x="198"
     inkscape:window-y="198"
     inkscape:window-maximized="0"
     borderlayer="true" />
  <metadata
     id="metadata7">
    <rdf:RDF>
      <cc:Work
         rdf:about="">
        <dc:format>image/svg+xml</dc:format>
        <dc:type
           rdf:resource="http://purl.org/dc/dcmitype/StillImage" />
        <dc:title></dc:title>
      </cc:Work>
    </rdf:RDF>
  </metadata>
  <g
     inkscape:label="Calque 1"
     inkscape:groupmode="layer"
     id="layer1"
     transform="translate(163.43655,-1112.5424)">
    <path
       style="fill:#ffffff;fill-opacity:1;stroke:#ffffff;stroke-width:1.72873878000000000;stroke-miterlimit:4;stroke-opacity:1;stroke-dasharray:none"
       d="m -158.40261,1144.579 -0.30651,-0.3509 0.24512,-0.5536 c 0.23049,-0.5208 0.64594,-1.3621 1.97108,-3.9916 0.30587,-0.6069 0.55611,-1.1473 0.55611,-1.2007 0,-0.054 0.27957,-0.6599 0.62129,-1.3477 0.82779,-1.6659 1.75492,-3.5538 2.13309,-4.3433 0.16909,-0.3532 0.78912,-1.604 1.37786,-2.7796 0.58872,-1.1756 1.08564,-2.2262 1.10426,-2.3344 0.0303,-0.1763 -0.18048,-0.2028 -2.02583,-0.2552 -1.13283,-0.032 -2.12124,-0.096 -2.19651,-0.1445 -0.0752,-0.049 -0.16367,-0.1849 -0.1965,-0.3057 -0.07,-0.2577 0.54423,-1.5267 0.8415,-1.7387 0.1466,-0.1056 0.85071,-0.1461 2.48633,-0.1461 l 2.28182,0 0.33019,-0.5409 c 2.01394,-3.2992 3.77297,-4.9249 6.99387,-6.4628 0.93292,-0.4457 2.07786,-0.9401 2.54431,-1.0992 2.45957,-0.8377 5.32698,-1.077 6.56411,-0.5478 0.50571,0.2166 0.66315,0.3546 0.81165,0.7122 0.31842,0.7667 -0.13643,1.717 -1.03926,2.1713 -0.45956,0.2316 -1.55768,0.2034 -2.73973,-0.069 -2.21857,-0.5124 -3.79977,-0.1891 -5.02894,1.0281 -0.46443,0.4599 -2.66458,4.5378 -2.5472,4.721 0.0308,0.049 1.21413,0.087 2.62956,0.087 2.75498,0 2.86429,0.023 2.86429,0.5862 0,0.2267 -0.54536,1.4047 -0.76634,1.6555 -0.0115,0.015 -1.3799,0.053 -3.04054,0.087 l -3.01934,0.064 -0.2635,0.4802 c -0.14493,0.2641 -0.5285,0.947 -0.85238,1.5174 -0.32387,0.5705 -0.91003,1.641 -1.30258,2.3793 -0.39253,0.7382 -0.95736,1.7888 -1.25515,2.3343 -0.29781,0.5456 -0.95568,1.7799 -1.46194,2.7429 -0.50625,0.9629 -1.3119,2.4599 -1.79031,3.3265 -0.47842,0.8667 -1.16466,2.1209 -1.52499,2.7872 -0.37367,0.691 -0.75927,1.2533 -0.89747,1.3085 -0.23114,0.093 -3.27164,0.5732 -3.62568,0.5732 -0.093,0 -0.30718,-0.1581 -0.47574,-0.351 z"
       id="path3845-1"
       inkscape:connector-curvature="0" />
  </g>
</svg>
