<?xml version="1.0" encoding="UTF-8" standalone="no"?>
<!-- Created with Inkscape (http://www.inkscape.org/) -->

<svg
   xmlns:dc="http://purl.org/dc/elements/1.1/"
   xmlns:cc="http://creativecommons.org/ns#"
   xmlns:rdf="http://www.w3.org/1999/02/22-rdf-syntax-ns#"
   xmlns:svg="http://www.w3.org/2000/svg"
   xmlns="http://www.w3.org/2000/svg"
   xmlns:sodipodi="http://sodipodi.sourceforge.net/DTD/sodipodi-0.dtd"
   xmlns:inkscape="http://www.inkscape.org/namespaces/inkscape"
   width="25"
   height="25"
   id="svg2997"
   version="1.1"
   inkscape:version="0.48.2 r9819"
   inkscape:export-filename="C:\dev\perso\pixmob\freemobilenetstat\res\drawable-hdpi\ic_stat_notify_service_orange.png"
   inkscape:export-xdpi="90"
   inkscape:export-ydpi="90"
   sodipodi:docname="ic_stat_notify_service_orange.svg">
  <defs
     id="defs2999" />
  <sodipodi:namedview
     id="base"
     pagecolor="#000000"
     bordercolor="#666666"
     borderopacity="1.0"
     inkscape:pageopacity="0"
     inkscape:pageshadow="2"
     inkscape:zoom="22.184211"
     inkscape:cx="-0.95551585"
     inkscape:cy="17.196916"
     inkscape:document-units="px"
     inkscape:current-layer="layer1"
     showgrid="true"
     showguides="false"
     inkscape:snap-global="false"
     inkscape:window-width="1920"
     inkscape:window-height="1033"
     inkscape:window-x="-4"
     inkscape:window-y="-4"
     inkscape:window-maximized="1">
    <inkscape:grid
       type="xygrid"
       id="grid3847"
       empspacing="5"
       visible="true"
       enabled="true"
       snapvisiblegridlinesonly="true" />
  </sodipodi:namedview>
  <metadata
     id="metadata3002">
    <rdf:RDF>
      <cc:Work
         rdf:about="">
        <dc:format>image/svg+xml</dc:format>
        <dc:type
           rdf:resource="http://purl.org/dc/dcmitype/StillImage" />
        <dc:title></dc:title>
      </cc:Work>
    </rdf:RDF>
  </metadata>
  <g
     inkscape:label="Calque 1"
     inkscape:groupmode="layer"
     id="layer1"
     transform="translate(0,-1027.3622)">
    <path
       style="fill:#999999;fill-opacity:1"
       d=""
       id="path3025"
       inkscape:connector-curvature="0"
       transform="translate(0,1028.3622)" />
    <path
       style="fill:#101010;fill-opacity:1"
       d="m 2.9547649,1050.5896 -0.2256385,-0.2681 0.1804549,-0.4232 c 0.1696742,-0.3979 0.4755191,-1.0409 1.4510538,-3.0501 0.225159,-0.4639 0.4093794,-0.8769 0.4093794,-0.9176 0,-0.042 0.2058194,-0.5043 0.4573777,-1.0298 0.609398,-1.2732 1.2919186,-2.7158 1.5703166,-3.3191 0.1244792,-0.2699 0.5809313,-1.2257 1.014338,-2.124 0.4334066,-0.8983 0.7992235,-1.7011 0.8129296,-1.7838 0.022319,-0.1349 -0.1328617,-0.155 -1.491358,-0.1951 -0.833951,-0.025 -1.5615999,-0.074 -1.6169983,-0.1104 -0.055397,-0.037 -0.1204941,-0.1412 -0.1446582,-0.2337 -0.051488,-0.1968 0.4006375,-1.1666 0.6194841,-1.3287 0.1079198,-0.08 0.6262712,-0.1115 1.8303602,-0.1115 l 1.6798096,0 0.243083,-0.4134 c 1.4825972,-2.5212 2.7775472,-3.7634 5.1486802,-4.9386 0.686783,-0.3407 1.529653,-0.7185 1.873046,-0.84 1.810657,-0.6401 3.921561,-0.823 4.83231,-0.4185 0.372275,0.1654 0.488181,0.2709 0.597501,0.5442 0.23442,0.5858 -0.100434,1.312 -0.765066,1.6592 -0.338322,0.1768 -1.146721,0.1554 -2.016914,-0.053 -1.633244,-0.3916 -2.797278,-0.1444 -3.702156,0.7858 -0.341895,0.3513 -1.961584,3.4675 -1.875175,3.6075 0.0227,0.037 0.89381,0.066 1.935807,0.066 2.028131,0 2.108601,0.017 2.108601,0.4479 0,0.1734 -0.401476,1.0735 -0.564154,1.2651 -0.0086,0.011 -1.015839,0.04 -2.238352,0.066 l -2.222755,0.048 -0.193983,0.3671 c -0.10669,0.2018 -0.389063,0.7237 -0.627493,1.1594 -0.238429,0.436 -0.66994,1.254 -0.958914,1.8182 -0.288976,0.5641 -0.704782,1.367 -0.924017,1.7838 -0.2192322,0.4171 -0.7035352,1.3602 -1.0762297,2.096 -0.3726937,0.7358 -0.9657821,1.8798 -1.3179751,2.542 -0.3521931,0.6623 -0.8573885,1.6208 -1.1226558,2.1299 -0.2750855,0.5282 -0.5589462,0.9577 -0.6606894,0.9999 -0.1701583,0.072 -2.4084793,0.438 -2.6691209,0.438 -0.068528,0 -0.2261283,-0.1207 -0.3502292,-0.2681 z"
       id="path3845"
       inkscape:connector-curvature="0" />
    <text
       xml:space="preserve"
       style="font-size:14.10214996000000000px;font-style:normal;font-weight:normal;line-height:125%;letter-spacing:0px;word-spacing:0px;fill:#101010;fill-opacity:1;stroke:none;font-family:Sans"
       x="13.828933"
       y="1049.4178"
       id="text3791"
       sodipodi:linespacing="125%"><tspan
         sodipodi:role="line"
         id="tspan3793"
         x="13.828933"
         y="1049.4178"
         style="font-style:normal;font-variant:normal;font-weight:bold;font-stretch:normal;fill:#101010;font-family:Liberation Sans;-inkscape-font-specification:Liberation Sans Bold;fill-opacity:1">?</tspan></text>
  </g>
</svg>
