<?xml version="1.0" encoding="UTF-8" standalone="no"?>
<!-- Created with Inkscape (http://www.inkscape.org/) -->

<svg
   xmlns:dc="http://purl.org/dc/elements/1.1/"
   xmlns:cc="http://creativecommons.org/ns#"
   xmlns:rdf="http://www.w3.org/1999/02/22-rdf-syntax-ns#"
   xmlns:svg="http://www.w3.org/2000/svg"
   xmlns="http://www.w3.org/2000/svg"
   xmlns:xlink="http://www.w3.org/1999/xlink"
   xmlns:sodipodi="http://sodipodi.sourceforge.net/DTD/sodipodi-0.dtd"
   xmlns:inkscape="http://www.inkscape.org/namespaces/inkscape"
   width="24"
   height="38"
   id="svg2997"
   version="1.1"
   inkscape:version="0.48.2 r9819"
   inkscape:export-filename="C:\dev\perso\pixmob\freemobilenetstat\res\drawable-hdpi-v9\ic_stat_notify_service_free_bw.png"
   inkscape:export-xdpi="90"
   inkscape:export-ydpi="90"
   sodipodi:docname="ic_stat_notify_service_free_v9_bw.svg">
  <defs
     id="defs2999">
    <linearGradient
       y2="1051.0812"
       x2="12.62159"
       y1="1029.2286"
       x1="12.62159"
       gradientTransform="matrix(0.91568628,0,0,0.91781497,1.0664124,85.448468)"
       gradientUnits="userSpaceOnUse"
       id="linearGradient3779"
       xlink:href="#linearGradient2993-7"
       inkscape:collect="always" />
    <linearGradient
       id="linearGradient2993-7">
      <stop
         style="stop-color:#696969;stop-opacity:1;"
         offset="0"
         id="stop2995-4" />
      <stop
         style="stop-color:#0a0a0a;stop-opacity:1;"
         offset="1"
         id="stop2997-0" />
    </linearGradient>
  </defs>
  <sodipodi:namedview
     id="base"
     pagecolor="#000000"
     bordercolor="#666666"
     borderopacity="1.0"
     inkscape:pageopacity="0"
     inkscape:pageshadow="2"
     inkscape:zoom="15.839192"
     inkscape:cx="43.358273"
     inkscape:cy="9.9073719"
     inkscape:document-units="px"
     inkscape:current-layer="layer1"
     showgrid="true"
     showguides="false"
     inkscape:snap-global="false"
     inkscape:window-width="1920"
     inkscape:window-height="1033"
     inkscape:window-x="-4"
     inkscape:window-y="-4"
     inkscape:window-maximized="1">
    <inkscape:grid
       type="xygrid"
       id="grid3847"
       empspacing="5"
       visible="true"
       enabled="true"
       snapvisiblegridlinesonly="true" />
  </sodipodi:namedview>
  <metadata
     id="metadata3002">
    <rdf:RDF>
      <cc:Work
         rdf:about="">
        <dc:format>image/svg+xml</dc:format>
        <dc:type
           rdf:resource="http://purl.org/dc/dcmitype/StillImage" />
        <dc:title />
      </cc:Work>
    </rdf:RDF>
  </metadata>
  <g
     inkscape:label="Calque 1"
     inkscape:groupmode="layer"
     id="layer1"
     transform="translate(0,-1014.3622)">
    <path
       style="fill:#999999;fill-opacity:1"
       d=""
       id="path3025"
       inkscape:connector-curvature="0"
       transform="translate(0,1028.3622)" />
    <path
       style="fill:#8b8b8b;fill-opacity:1;stroke:#8b8b8b;stroke-width:1.38214814999999990;stroke-miterlimit:4;stroke-opacity:1;stroke-dasharray:none"
       d="m 1.8251195,1044.7958 -0.2405226,-0.2858 0.1923585,-0.451 c 0.1808668,-0.4242 0.5068865,-1.1095 1.5467716,-3.2514 0.2400115,-0.4944 0.4363839,-0.9346 0.4363839,-0.9781 0,-0.044 0.2193961,-0.5375 0.4875483,-1.0978 0.6495966,-1.357 1.3771392,-2.8948 1.6739015,-3.5379 0.1326904,-0.2877 0.6192521,-1.3066 1.0812482,-2.2642 0.4619961,-0.9576 0.8519438,-1.8134 0.8665541,-1.9015 0.023792,-0.1436 -0.141626,-0.1652 -1.5897346,-0.2079 -0.888962,-0.026 -1.6646098,-0.078 -1.7236626,-0.1177 -0.059052,-0.04 -0.1284424,-0.1506 -0.1542004,-0.249 -0.054884,-0.2099 0.4270652,-1.2436 0.6603478,-1.4163 0.1150388,-0.086 0.667583,-0.119 1.9510989,-0.119 l 1.7906166,0 0.2591187,-0.4406 c 1.5803956,-2.6875 2.9607646,-4.0117 5.4883096,-5.2644 0.732086,-0.3631 1.630554,-0.7658 1.996599,-0.8954 1.930096,-0.6824 4.180245,-0.8773 5.15107,-0.4462 0.396833,0.1764 0.520385,0.2888 0.636916,0.5801 0.249883,0.6245 -0.10706,1.3986 -0.815534,1.7687 -0.360639,0.1886 -1.222363,0.1657 -2.149958,-0.056 -1.74098,-0.4174 -2.981798,-0.154 -3.946365,0.8375 -0.36445,0.3746 -2.090982,3.6963 -1.998871,3.8456 0.0242,0.04 0.95277,0.071 2.063501,0.071 2.161916,0 2.247694,0.019 2.247694,0.4775 0,0.1847 -0.427959,1.1442 -0.601368,1.3485 -0.0092,0.012 -1.082848,0.043 -2.386004,0.071 l -2.369378,0.052 -0.206779,0.3912 c -0.113727,0.2151 -0.414727,0.7714 -0.668885,1.236 -0.254156,0.4647 -0.714133,1.3367 -1.022168,1.9381 -0.308039,0.6013 -0.7512725,1.4571 -0.9849676,1.9015 -0.2336941,0.4444 -0.7499443,1.4498 -1.1472235,2.2343 -0.3972781,0.7843 -1.029489,2.0037 -1.4049143,2.7096 -0.3754254,0.706 -0.9139456,1.7277 -1.1967111,2.2704 -0.2932314,0.5629 -0.5958168,1.0209 -0.7042714,1.0659 -0.1813827,0.076 -2.567353,0.4669 -2.8451877,0.4669 -0.073049,0 -0.2410447,-0.1288 -0.3733319,-0.2859 z"
       id="path3845"
       inkscape:connector-curvature="0" />
  </g>
</svg>
