<?xml version="1.0" encoding="UTF-8" standalone="no"?>
<!-- Created with Inkscape (http://www.inkscape.org/) -->

<svg
   xmlns:dc="http://purl.org/dc/elements/1.1/"
   xmlns:cc="http://creativecommons.org/ns#"
   xmlns:rdf="http://www.w3.org/1999/02/22-rdf-syntax-ns#"
   xmlns:svg="http://www.w3.org/2000/svg"
   xmlns="http://www.w3.org/2000/svg"
   xmlns:sodipodi="http://sodipodi.sourceforge.net/DTD/sodipodi-0.dtd"
   xmlns:inkscape="http://www.inkscape.org/namespaces/inkscape"
   width="24"
   height="38"
   id="svg2997"
   version="1.1"
   inkscape:version="0.48.2 r9819"
   inkscape:export-filename="C:\dev\perso\pixmob\freemobilenetstat\res\drawable-hdpi-v9\ic_stat_notify_service_free.png"
   inkscape:export-xdpi="90"
   inkscape:export-ydpi="90"
   sodipodi:docname="ic_stat_notify_service_free_v9.svg">
  <defs
     id="defs2999" />
  <sodipodi:namedview
     id="base"
     pagecolor="#000000"
     bordercolor="#666666"
     borderopacity="1.0"
     inkscape:pageopacity="0"
     inkscape:pageshadow="2"
     inkscape:zoom="15.839192"
     inkscape:cx="-4.3082996"
     inkscape:cy="16.220825"
     inkscape:document-units="px"
     inkscape:current-layer="layer1"
     showgrid="true"
     showguides="false"
     inkscape:snap-global="false"
     inkscape:window-width="1920"
     inkscape:window-height="1033"
     inkscape:window-x="-4"
     inkscape:window-y="-4"
     inkscape:window-maximized="1">
    <inkscape:grid
       type="xygrid"
       id="grid3847"
       empspacing="5"
       visible="true"
       enabled="true"
       snapvisiblegridlinesonly="true" />
  </sodipodi:namedview>
  <metadata
     id="metadata3002">
    <rdf:RDF>
      <cc:Work
         rdf:about="">
        <dc:format>image/svg+xml</dc:format>
        <dc:type
           rdf:resource="http://purl.org/dc/dcmitype/StillImage" />
        <dc:title />
      </cc:Work>
    </rdf:RDF>
  </metadata>
  <g
     inkscape:label="Calque 1"
     inkscape:groupmode="layer"
     id="layer1"
     transform="translate(0,-1014.3622)">
    <path
       style="fill:#999999;fill-opacity:1"
       d=""
       id="path3025"
       inkscape:connector-curvature="0"
       transform="translate(0,1028.3622)" />
    <path
       style="fill:#808080;fill-opacity:1"
       d="m 0.95753596,1045.771 -0.26103118,-0.3102 0.2087603,-0.4895 c 0.19628872,-0.4603 0.55010722,-1.2041 1.67866052,-3.5286 0.2604765,-0.5366 0.4735931,-1.0143 0.4735931,-1.0615 0,-0.048 0.2381034,-0.5834 0.5291201,-1.1914 0.7049859,-1.4728 1.494564,-3.1417 1.8166304,-3.8396 0.1440046,-0.3122 0.672054,-1.418 1.1734432,-2.4572 0.5013892,-1.0393 0.9245867,-1.968 0.9404427,-2.0636 0.02582,-0.156 -0.153702,-0.1794 -1.7252867,-0.2257 -0.9647614,-0.028 -1.8065465,-0.085 -1.8706345,-0.1277 -0.064087,-0.043 -0.1393943,-0.1634 -0.1673487,-0.2703 -0.059564,-0.2277 0.4634799,-1.3496 0.7166539,-1.5371 0.1248478,-0.093 0.7245058,-0.1291 2.1174636,-0.1291 l 1.9432974,0 0.281213,-0.4781 c 1.7151509,-2.9167 3.2132209,-4.3538 5.9562819,-5.7134 0.794509,-0.394 1.769588,-0.8311 2.166844,-0.9716 2.094669,-0.7407 4.536682,-0.9522 5.590288,-0.4843 0.430669,0.1914 0.564756,0.3134 0.691223,0.6296 0.27119,0.6777 -0.116188,1.5178 -0.885072,1.9195 -0.39139,0.2046 -1.326591,0.1798 -2.333279,-0.061 -1.889428,-0.4529 -3.236048,-0.167 -4.282861,0.909 -0.395525,0.4065 -2.269273,4.0115 -2.169308,4.1735 0.02626,0.043 1.034009,0.077 2.239449,0.077 2.346257,0 2.439349,0.02 2.439349,0.5182 0,0.2005 -0.46445,1.2418 -0.652645,1.4636 -0.01,0.013 -1.175179,0.046 -2.589452,0.077 l -2.571408,0.056 -0.224411,0.4247 c -0.123424,0.2334 -0.450089,0.8372 -0.725918,1.3413 -0.275828,0.5043 -0.775025,1.4507 -1.109326,2.1034 -0.334304,0.6526 -0.8153309,1.5813 -1.0689529,2.0636 -0.253621,0.4824 -0.81389,1.5735 -1.245044,2.4248 -0.431153,0.8512 -1.1172708,2.1746 -1.5247075,2.9407 -0.4074368,0.7662 -0.9918752,1.875 -1.2987513,2.464 -0.3182343,0.6109 -0.6466203,1.1079 -0.7643225,1.1567 -0.1968488,0.083 -2.7862641,0.5067 -3.087789,0.5067 -0.079277,0 -0.2615979,-0.1397 -0.40516484,-0.3102 z"
       id="path3845"
       inkscape:connector-curvature="0" />
  </g>
</svg>
