<?xml version="1.0" encoding="UTF-8" standalone="no"?>
<!-- Created with Inkscape (http://www.inkscape.org/) -->

<svg
   xmlns:dc="http://purl.org/dc/elements/1.1/"
   xmlns:cc="http://creativecommons.org/ns#"
   xmlns:rdf="http://www.w3.org/1999/02/22-rdf-syntax-ns#"
   xmlns:svg="http://www.w3.org/2000/svg"
   xmlns="http://www.w3.org/2000/svg"
   xmlns:xlink="http://www.w3.org/1999/xlink"
   xmlns:sodipodi="http://sodipodi.sourceforge.net/DTD/sodipodi-0.dtd"
   xmlns:inkscape="http://www.inkscape.org/namespaces/inkscape"
   width="25"
   height="25"
   id="svg2997"
   version="1.1"
   inkscape:version="0.48.2 r9819"
   inkscape:export-filename="C:\dev\perso\pixmob\freemobilenetstat\res\drawable-hdpi\ic_stat_notify_service_free.png"
   inkscape:export-xdpi="90"
   inkscape:export-ydpi="90"
   sodipodi:docname="ic_stat_notify_service_free_bw.svg">
  <defs
     id="defs2999">
    <linearGradient
       inkscape:collect="always"
       xlink:href="#linearGradient2993"
       id="linearGradient2999"
       x1="12.62159"
       y1="1024.3671"
       x2="12.62159"
       y2="1052.6777"
       gradientUnits="userSpaceOnUse"
       gradientTransform="matrix(0.91568628,0,0,0.91781497,1.0664122,85.448515)" />
    <linearGradient
       id="linearGradient2993">
      <stop
         style="stop-color:#696969;stop-opacity:1;"
         offset="0"
         id="stop2995" />
      <stop
         style="stop-color:#0a0a0a;stop-opacity:1;"
         offset="1"
         id="stop2997" />
    </linearGradient>
    <linearGradient
       y2="1052.6777"
       x2="12.62159"
       y1="1024.3671"
       x1="12.62159"
       gradientTransform="matrix(0.91568628,0,0,0.91781497,1.0664123,85.448507)"
       gradientUnits="userSpaceOnUse"
       id="linearGradient3788"
       xlink:href="#linearGradient2993"
       inkscape:collect="always" />
    <linearGradient
       inkscape:collect="always"
       xlink:href="#linearGradient2993-7"
       id="linearGradient2999-1"
       x1="12.62159"
       y1="1029.2286"
       x2="12.62159"
       y2="1051.0812"
       gradientUnits="userSpaceOnUse"
       gradientTransform="matrix(0.91568628,0,0,0.91781497,1.0664122,85.448515)" />
    <linearGradient
       id="linearGradient2993-7">
      <stop
         style="stop-color:#696969;stop-opacity:1;"
         offset="0"
         id="stop2995-4" />
      <stop
         style="stop-color:#0a0a0a;stop-opacity:1;"
         offset="1"
         id="stop2997-0" />
    </linearGradient>
    <linearGradient
       y2="1051.0812"
       x2="12.62159"
       y1="1032.802"
       x1="12.62159"
       gradientTransform="matrix(0.91568628,0,0,0.91781497,1.0664124,85.448468)"
       gradientUnits="userSpaceOnUse"
       id="linearGradient3779"
       xlink:href="#linearGradient2993-7"
       inkscape:collect="always" />
  </defs>
  <sodipodi:namedview
     id="base"
     pagecolor="#000000"
     bordercolor="#666666"
     borderopacity="1.0"
     inkscape:pageopacity="0"
     inkscape:pageshadow="2"
     inkscape:zoom="31.373212"
     inkscape:cx="22.781661"
     inkscape:cy="10.87462"
     inkscape:document-units="px"
     inkscape:current-layer="layer1"
     showgrid="true"
     showguides="false"
     inkscape:snap-global="false"
     inkscape:window-width="1920"
     inkscape:window-height="1033"
     inkscape:window-x="-4"
     inkscape:window-y="-4"
     inkscape:window-maximized="1">
    <inkscape:grid
       type="xygrid"
       id="grid3847"
       empspacing="5"
       visible="true"
       enabled="true"
       snapvisiblegridlinesonly="true" />
  </sodipodi:namedview>
  <metadata
     id="metadata3002">
    <rdf:RDF>
      <cc:Work
         rdf:about="">
        <dc:format>image/svg+xml</dc:format>
        <dc:type
           rdf:resource="http://purl.org/dc/dcmitype/StillImage" />
        <dc:title />
      </cc:Work>
    </rdf:RDF>
  </metadata>
  <g
     inkscape:label="Calque 1"
     inkscape:groupmode="layer"
     id="layer1"
     transform="translate(0,-1027.3622)">
    <rect
       style="fill:url(#linearGradient3779);fill-opacity:1"
       id="rect2991-9"
       width="21.05101"
       height="21.017199"
       x="1.9744949"
       y="1029.3536"
       rx="1.8313726"
       ry="1.8356301" />
    <path
       style="fill:#999999;fill-opacity:1"
       d=""
       id="path3025"
       inkscape:connector-curvature="0"
       transform="translate(0,1028.3622)" />
    <path
       style="fill:#ffffff;fill-opacity:1;stroke:#ffffff;stroke-width:0.92598820000000004;stroke-miterlimit:4;stroke-opacity:1;stroke-dasharray:none"
       d="m 5.6832062,1047.5224 -0.1611415,-0.1915 0.1288727,-0.302 c 0.1211747,-0.2843 0.3395959,-0.7435 1.0362801,-2.1784 0.160799,-0.3312 0.2923614,-0.6261 0.2923614,-0.6553 0,-0.029 0.1469871,-0.36 0.3266395,-0.7355 0.4352048,-0.9091 0.9226319,-1.9394 1.1214519,-2.3702 0.088898,-0.1927 0.4148754,-0.8755 0.7243962,-1.517 0.3095208,-0.6415 0.5707704,-1.2149 0.5805594,-1.274 0.01594,-0.096 -0.09488,-0.1106 -1.0650636,-0.1391 -0.5955721,-0.018 -1.1152274,-0.053 -1.1547907,-0.079 -0.039557,-0.026 -0.086053,-0.1009 -0.1033084,-0.1667 -0.036768,-0.1407 0.2861184,-0.8333 0.4424091,-0.949 0.077075,-0.057 0.4472556,-0.08 1.3071646,-0.08 l 1.1996471,0 0.173599,-0.2953 c 1.058807,-1.8005 1.983602,-2.6877 3.676965,-3.5269 0.490471,-0.2433 1.09241,-0.5131 1.337647,-0.5999 1.293093,-0.4572 2.80061,-0.5878 3.451027,-0.299 0.265863,0.1182 0.348639,0.1936 0.42671,0.3886 0.167412,0.4185 -0.07172,0.9371 -0.546378,1.1851 -0.241614,0.1263 -0.818937,0.111 -1.440392,-0.038 -1.166392,-0.2796 -1.997695,-0.1032 -2.643919,0.5611 -0.244168,0.2509 -1.400881,2.4763 -1.339169,2.5764 0.01622,0.026 0.63832,0.048 1.382468,0.048 1.448404,0 1.505873,0.012 1.505873,0.32 0,0.1237 -0.286717,0.7665 -0.402895,0.9033 -0.0062,0.01 -0.725468,0.029 -1.598534,0.048 l -1.587395,0.035 -0.138535,0.2621 c -0.07619,0.1442 -0.277852,0.5169 -0.448129,0.8282 -0.170275,0.3113 -0.478441,0.8954 -0.684813,1.2984 -0.206375,0.4028 -0.503325,0.9762 -0.659893,1.274 -0.156567,0.2976 -0.502434,0.9713 -0.768597,1.4968 -0.2661621,0.5255 -0.6897191,1.3424 -0.9412408,1.8153 -0.2515208,0.4731 -0.6123095,1.1575 -0.8017528,1.5211 -0.1964533,0.3772 -0.3991753,0.684 -0.4718354,0.7142 -0.1215191,0.051 -1.7200317,0.3127 -1.9061707,0.3127 -0.048941,0 -0.1614911,-0.086 -0.2501181,-0.1915 z"
       id="path3845-4"
       inkscape:connector-curvature="0" />
  </g>
</svg>
